# xmcd
#
# Track frame offsets:
#	150
#	14793
#	27780
#	43887
#	59493
#	77065
#	94082
#	107562
#	126758
#	144660
#	163747
#	176710
#	194770
#	211978
#
# Disc length: 3070 seconds
#
# Revision: 0
# Processed by: cddbd v1.5.1PL2 Copyright (c) Steve Scherf et al.
# Submitted via: EasyCDDAExtractor 8.1.0.1
#
DISCID=ce0bfc0e
DTITLE=Various Artist - Un beso y una flor
DYEAR=2002
DGENRE=romantica
TTITLE0=Elio Roca - Como deseo ser tu amor
TTITLE1=Nino Bravo - Te quiero, te quiero
TTITLE2=Trigo Limpio - Rómpeme, Mátame
TTITLE3=Los pasteles verdes - Angelitos Negros
TTITLE4=Los Angeles Negros - Y volveré
TTITLE5=Los Panchos - Bésame mucho
TTITLE6=Diego Verdguer - La Ladrona
TTITLE7=Ruddy L'scala - El cariño es como una flor
TTITLE8=Pedro Fernándes - Quien
TTITLE9=Maria Conchita Alonso - Acaríciame
TTITLE10=Guillermo Dávila - Solo pienso en tí
TTITLE11=Vicky Carr - Concavo y Convexo
TTITLE12=Ricardo Montaner - Será
TTITLE13=Perdro Fernández - Mi forma de Sentir
EXTD=
EXTT0=
EXTT1=
EXTT2=
EXTT3=
EXTT4=
EXTT5=
EXTT6=
EXTT7=
EXTT8=
EXTT9=
EXTT10=
EXTT11=
EXTT12=
EXTT13=
PLAYORDER=
